<svg width="11" height="11" viewBox="0 0 11 11" fill="none" xmlns="http://www.w3.org/2000/svg">
<g clip-path="url(#clip0_435_611)">
<path d="M5.80186 8.34442L10.8756 3.25659C11.0417 3.0899 11.0415 2.82001 10.8747 2.65359C10.7081 2.48731 10.438 2.48774 10.2717 2.65445L5.49998 7.43944L0.728235 2.65428C0.561947 2.48759 0.292083 2.48716 0.125364 2.65342C0.041791 2.73685 2.86102e-06 2.84614 2.86102e-06 2.95543C2.86102e-06 3.06444 0.0415115 3.1733 0.124505 3.25657L5.19813 8.34442C5.27801 8.42471 5.38672 8.46976 5.49998 8.46976C5.61325 8.46976 5.72183 8.42458 5.80186 8.34442Z" fill="white"/>
</g>
<defs>
<clipPath id="clip0_435_611">
<rect width="11" height="11" fill="white" transform="matrix(0 1 -1 0 11 0)"/>
</clipPath>
</defs>
</svg>
