<svg width="11" height="12" viewBox="0 0 11 12" fill="none" xmlns="http://www.w3.org/2000/svg">
<g clip-path="url(#clip0_360_5320)">
<path d="M8.34277 6.19639L3.25495 11.2701C3.08825 11.4363 2.81837 11.436 2.65195 11.2693C2.48566 11.1026 2.48609 10.8325 2.65281 10.6663L7.43779 5.89451L2.65264 1.12277C2.48594 0.956478 2.48551 0.686614 2.65178 0.519896C2.7352 0.436322 2.84449 0.394534 2.95378 0.394534C3.06279 0.394534 3.17165 0.436043 3.25493 0.519036L8.34277 5.59266C8.42306 5.67254 8.46811 5.78125 8.46811 5.89451C8.46811 6.00778 8.42293 6.11636 8.34277 6.19639Z" fill="#656D89"/>
</g>
<defs>
<clipPath id="clip0_360_5320">
<rect width="11" height="11" fill="white" transform="matrix(1 0 0 -1 0 11.3945)"/>
</clipPath>
</defs>
</svg>
