<svg width="29" height="29" viewBox="0 0 29 29" fill="none" xmlns="http://www.w3.org/2000/svg">
<path d="M14.4987 0C9.16861 0 4.83203 4.33658 4.83203 9.66669C4.83203 11.2668 5.23208 12.8533 5.9926 14.2605L13.9701 28.6885C14.0763 28.8808 14.2787 29 14.4987 29C14.7188 29 14.9211 28.8808 15.0273 28.6885L23.0078 14.2557C23.7654 12.8533 24.1654 11.2667 24.1654 9.66663C24.1654 4.33658 19.8288 0 14.4987 0ZM14.4987 14.5C11.8337 14.5 9.6654 12.3317 9.6654 9.66669C9.6654 7.00163 11.8337 4.83337 14.4987 4.83337C17.1638 4.83337 19.332 7.00163 19.332 9.66669C19.332 12.3317 17.1638 14.5 14.4987 14.5Z" fill="white"/>
</svg>
