<svg width="24" height="24" viewBox="0 0 24 24" fill="none" xmlns="http://www.w3.org/2000/svg">
<path d="M23.25 15.375H21V10.5C21 10.4231 20.9763 10.348 20.932 10.2851L18.307 6.53508C18.2724 6.48568 18.2264 6.44535 18.173 6.4175C18.1195 6.38966 18.0601 6.37512 17.9998 6.37512C17.9395 6.37512 17.8801 6.38966 17.8266 6.4175C17.7731 6.44535 17.7271 6.48568 17.6926 6.53508L15.0676 10.2851C15.0234 10.348 14.9998 10.4231 15 10.5V12.8467C14.4864 12.1563 13.8013 11.5835 12.9554 11.1417C13.7906 10.1599 14.2457 8.88426 14.2457 7.5C14.2477 6.88834 14.1549 6.28007 13.9707 5.69681C14.336 5.50401 14.6506 5.22775 14.889 4.89048C15.1274 4.55321 15.2828 4.16445 15.3426 3.7558C15.4025 3.34715 15.3651 2.93014 15.2334 2.53867C15.1018 2.1472 14.8796 1.79231 14.585 1.50286C14.2904 1.21341 13.9316 0.997568 13.5379 0.87287C13.1442 0.748172 12.7266 0.71814 12.319 0.785217C11.9115 0.852294 11.5256 1.01459 11.1926 1.2589C10.8596 1.50322 10.5889 1.82266 10.4026 2.19126C9.70408 1.97604 8.97665 1.86937 8.24574 1.875C7.51488 1.86937 6.78749 1.97605 6.08902 2.19131C5.90272 1.8227 5.63207 1.50326 5.29908 1.25894C4.96608 1.01462 4.58013 0.852321 4.1726 0.785239C3.76507 0.718157 3.34747 0.748183 2.95373 0.872876C2.55999 0.99757 2.20123 1.21341 1.90661 1.50286C1.61199 1.7923 1.38982 2.14718 1.25817 2.53865C1.12652 2.93012 1.0891 3.34713 1.14895 3.75578C1.2088 4.16443 1.36424 4.5532 1.60262 4.89047C1.841 5.22774 2.1556 5.50401 2.52085 5.69681C2.33661 6.28007 2.2438 6.88834 2.24574 7.5C2.24574 8.88426 2.70108 10.16 3.53616 11.1417C1.71047 12.0952 0.634037 13.6591 0.413209 15.6951C0.41274 15.6997 0.412271 15.7044 0.411943 15.7091L0.375896 16.2239C0.374701 16.2408 0.374701 16.2578 0.375896 16.2747C0.40588 16.7137 0.563634 17.1343 0.829717 17.4846C1.0958 17.835 1.45859 18.0999 1.87337 18.2467C1.62595 18.7537 1.4982 19.3108 1.49996 19.875C1.49996 21.7359 2.84574 23.25 4.49996 23.25C5.39058 23.25 6.19135 22.8107 6.74129 22.1151C7.20403 22.3676 7.72277 22.5 8.24996 22.5C8.77714 22.5 9.29589 22.3676 9.75863 22.1151C10.3086 22.8107 11.1093 23.25 12 23.25C13.1754 23.25 14.1945 22.4852 14.6863 21.375H23.25C23.3494 21.375 23.4448 21.3355 23.5151 21.2652C23.5854 21.1948 23.625 21.0995 23.625 21V15.75C23.625 15.6505 23.5854 15.5552 23.5151 15.4848C23.4448 15.4145 23.3494 15.375 23.25 15.375ZM18 7.40391L19.9047 10.125H16.0952L18 7.40391ZM15.75 10.875H20.25V15.375H16.0351C15.976 14.9918 15.8805 14.6151 15.75 14.25V10.875ZM14.6253 18.244C14.9786 18.1172 15.2949 17.9045 15.5456 17.625H16.125V19.125H14.9243C14.863 18.8197 14.7625 18.5236 14.6253 18.244ZM15.3318 15.769L15.3656 16.2496C15.3386 16.5671 15.2115 16.8677 15.0025 17.1082C14.7936 17.3486 14.5136 17.5165 14.2031 17.5875C13.733 17.0149 13.0893 16.626 12.367 16.5263C12.2987 15.0011 11.7846 13.5937 10.9446 12.6084C11.4742 12.3846 11.9653 12.079 12.3999 11.7026C14.1177 12.5254 15.1298 13.9262 15.3318 15.7687V15.769ZM12.7457 1.5C13.1578 1.49987 13.5584 1.63546 13.8856 1.88581C14.2129 2.13616 14.4485 2.48734 14.5562 2.88505C14.6639 3.28276 14.6375 3.70486 14.4813 4.08611C14.325 4.46736 14.0475 4.78651 13.6917 4.99425C13.4299 4.4457 13.0746 3.94694 12.6417 3.52031C12.195 3.08215 11.6758 2.7246 11.1071 2.46347C11.2699 2.1717 11.5076 1.92862 11.7956 1.75927C12.0837 1.58991 12.4116 1.50042 12.7457 1.5ZM1.87074 3.375C1.87063 2.9596 2.00847 2.55592 2.26261 2.22734C2.51676 1.89876 2.87283 1.66388 3.27492 1.55957C3.67701 1.45526 4.10236 1.48743 4.48419 1.65103C4.86601 1.81463 5.1827 2.1004 5.38454 2.46347C4.81588 2.72457 4.2967 3.08213 3.84999 3.52031C3.41706 3.94691 3.06174 4.44566 2.79999 4.9942C2.51745 4.82867 2.28307 4.59217 2.12007 4.30816C1.95708 4.02414 1.87113 3.70246 1.87074 3.375ZM4.37588 4.05506C5.32726 3.11953 6.66558 2.625 8.24574 2.625C9.8259 2.625 11.1642 3.11953 12.1156 4.05511C13.0056 4.93026 13.4957 6.15366 13.4957 7.5C13.4957 8.84634 13.0056 10.0697 12.1156 10.9449C11.1642 11.8805 9.82604 12.375 8.24574 12.375C6.66544 12.375 5.32726 11.8805 4.37588 10.9449C3.48587 10.0697 2.99574 8.84634 2.99574 7.5C2.99574 6.15366 3.48587 4.93026 4.37588 4.05506ZM1.12594 16.2495L1.1596 15.7689C1.36168 13.9261 2.37366 12.5254 4.09149 11.7024C4.52802 12.0805 5.02152 12.3871 5.55376 12.6112C4.71624 13.5967 4.20155 15.0082 4.13288 16.5262C3.40993 16.6259 2.76558 17.0156 2.29547 17.5889C1.9834 17.5191 1.70173 17.3516 1.49139 17.1107C1.28106 16.8699 1.15304 16.5682 1.12594 16.2495ZM4.49996 22.5C3.25927 22.5 2.24996 21.3225 2.24996 19.875C2.24996 18.4275 3.25927 17.25 4.49996 17.25C5.74065 17.25 6.74996 18.4275 6.74996 19.875C6.74996 21.3225 5.74065 22.5 4.49996 22.5ZM8.24996 21.75C7.86346 21.7487 7.48287 21.655 7.13996 21.4767C7.37869 20.9766 7.50173 20.4292 7.49996 19.875C7.49996 18.1604 6.35729 16.7414 4.88377 16.5286C4.95587 15.0661 5.48129 13.7292 6.32499 12.8782C6.95135 13.0458 7.59734 13.1288 8.24574 13.125C8.89633 13.1289 9.54449 13.0454 10.1728 12.8766C11.0192 13.7274 11.5446 15.059 11.6163 16.5287C10.1427 16.7413 8.99996 18.1603 8.99996 19.875C8.99819 20.4292 9.12123 20.9766 9.35996 21.4767C9.01705 21.655 8.63646 21.7487 8.24996 21.75ZM12 22.5C10.7593 22.5 9.74996 21.3225 9.74996 19.875C9.74996 18.4275 10.7593 17.25 12 17.25C13.2406 17.25 14.25 18.4275 14.25 19.875C14.25 21.3225 13.2406 22.5 12 22.5ZM15 19.875H16.5C16.5994 19.875 16.6948 19.8355 16.7651 19.7652C16.8354 19.6948 16.875 19.5995 16.875 19.5V17.25C16.875 17.1505 16.8354 17.0552 16.7651 16.9848C16.6948 16.9145 16.5994 16.875 16.5 16.875H15.9917C16.0604 16.6816 16.1022 16.4796 16.1157 16.2747C16.1169 16.2578 16.1169 16.2408 16.1157 16.2239L16.1088 16.125H17.625V20.625H14.9243C14.9745 20.3782 14.9999 20.1269 15 19.875ZM22.875 20.625H18.375V16.125H22.875V20.625Z" fill="#31BEF4"/>
</svg>
