<svg width="24" height="24" viewBox="0 0 24 24" fill="none" xmlns="http://www.w3.org/2000/svg">
<g clip-path="url(#clip0_360_4898)">
<path d="M15.7986 19.7248C15.8377 19.7314 15.8766 19.7346 15.915 19.7346C16.2525 19.7346 16.5504 19.4908 16.6077 19.1469L17.3109 14.9281C17.3747 14.5451 17.1159 14.1828 16.7329 14.119C16.3498 14.0549 15.9876 14.3139 15.9237 14.6969L15.2206 18.9157C15.1568 19.2988 15.4155 19.6611 15.7986 19.7248Z" fill="#31BEF4"/>
<path d="M7.43937 19.1468C7.49669 19.4907 7.79454 19.7345 8.13209 19.7345C8.17048 19.7345 8.20938 19.7314 8.24852 19.7248C8.63159 19.661 8.89034 19.2987 8.82649 18.9156L8.12337 14.6969C8.05952 14.3138 7.69732 14.0551 7.31421 14.1189C6.93115 14.1828 6.6724 14.545 6.73624 14.9281L7.43937 19.1468Z" fill="#31BEF4"/>
<path d="M23.2969 8.48437H20.8223L15.4084 1.71702C15.1659 1.41388 14.7234 1.36462 14.4202 1.60724C14.1169 1.84982 14.0677 2.29227 14.3104 2.59551L19.0215 8.48437H4.97855L9.68967 2.59551C9.93225 2.29227 9.88308 1.84977 9.57989 1.60724C9.27661 1.36462 8.83416 1.41384 8.59163 1.71702L3.1777 8.48437H0.703125C0.314812 8.48437 0 8.79918 0 9.18749V12C0 12.3883 0.314812 12.7031 0.703125 12.7031H1.57903L4.24584 22.0369C4.33205 22.3388 4.60795 22.5469 4.92188 22.5469H19.0781C19.392 22.5469 19.668 22.3388 19.7542 22.0369L22.421 12.7031H23.2969C23.6852 12.7031 24 12.3883 24 12V9.18749C24 8.79918 23.6852 8.48437 23.2969 8.48437ZM18.5478 21.1406H5.45222L3.04153 12.7031H20.9585L18.5478 21.1406ZM22.5938 11.2969C20.1851 11.2969 3.68813 11.2969 1.40625 11.2969V9.89062H22.5938V11.2969Z" fill="#31BEF4"/>
<path d="M12 19.7343C12.3883 19.7343 12.7031 19.4194 12.7031 19.0311V14.8124C12.7031 14.4241 12.3883 14.1093 12 14.1093C11.6117 14.1093 11.2969 14.4241 11.2969 14.8124V19.0311C11.2969 19.4195 11.6117 19.7343 12 19.7343Z" fill="#31BEF4"/>
</g>
<defs>
<clipPath id="clip0_360_4898">
<rect width="24" height="24" fill="white"/>
</clipPath>
</defs>
</svg>
