<svg width="233" height="265" viewBox="0 0 233 265" fill="none" xmlns="http://www.w3.org/2000/svg">
<path d="M201.362 181.569L231.949 166.223V180.111L201.888 195.782" stroke="white" stroke-miterlimit="10" stroke-linecap="round" stroke-linejoin="round"/>
<path d="M209.938 177.233L231.948 166.219V138.469L209.938 149.469V177.233Z" stroke="white" stroke-miterlimit="10" stroke-linecap="round" stroke-linejoin="round"/>
<path d="M201.363 181.57L209.94 177.278V149.527L201.363 153.806" stroke="white" stroke-miterlimit="10" stroke-linecap="round" stroke-linejoin="round"/>
<path d="M209.427 141.647L231.949 130.687V102.613L209.427 113.883V141.647Z" stroke="white" stroke-miterlimit="10" stroke-linecap="round" stroke-linejoin="round"/>
<path d="M201.363 145.705L209.428 141.683V113.919L201.363 117.955" stroke="white" stroke-miterlimit="10" stroke-linecap="round" stroke-linejoin="round"/>
<path d="M208.762 105.715L231.944 94.1213V66.3711L208.762 77.9652V105.715Z" stroke="white" stroke-miterlimit="10" stroke-linecap="round" stroke-linejoin="round"/>
<path d="M201.359 109.467L208.763 105.769V78.0049L201.359 81.7031" stroke="white" stroke-miterlimit="10" stroke-linecap="round" stroke-linejoin="round"/>
<path d="M136.238 204.176L113.716 215.338" stroke="white" stroke-miterlimit="10" stroke-linecap="round" stroke-linejoin="round"/>
<path d="M46.2047 254.252L1.08008 231.672L0.999023 107.5L46.2047 131.171V254.252Z" stroke="white" stroke-miterlimit="10" stroke-linecap="round" stroke-linejoin="round"/>
<path d="M113.715 158.166L131.26 149.379V120.198L113.715 128.985" stroke="white" stroke-miterlimit="10" stroke-linecap="round" stroke-linejoin="round"/>
<path d="M118.961 126.365V155.533" stroke="white" stroke-miterlimit="10" stroke-linecap="round" stroke-linejoin="round"/>
<path d="M156.44 214.502L136.076 204.311L136.238 78.1123L156.44 86.2781V214.502Z" stroke="white" stroke-miterlimit="10" stroke-linecap="round" stroke-linejoin="round"/>
<path d="M156.44 223.5V214.503L136.076 204.312V213.491L156.44 223.5Z" stroke="white" stroke-miterlimit="10" stroke-linecap="round" stroke-linejoin="round"/>
<path d="M201.361 192.259L156.264 214.394V86.1706L201.361 64.0352V192.259Z" stroke="white" stroke-miterlimit="10" stroke-linecap="round" stroke-linejoin="round"/>
<path d="M68.5786 131.696L46.2051 131.17V254.237L68.5786 254.885V131.696Z" stroke="white" stroke-miterlimit="10" stroke-linecap="round" stroke-linejoin="round"/>
<path d="M1.07812 240.524L46.1892 263.604V254.237L1.07812 231.777V240.524Z" stroke="white" stroke-miterlimit="10" stroke-linecap="round" stroke-linejoin="round"/>
<path d="M68.5784 264.305L46.1914 263.603V254.236L68.5784 254.938V264.305Z" stroke="white" stroke-miterlimit="10" stroke-linecap="round" stroke-linejoin="round"/>
<path d="M113.715 202.717L131.692 193.715V166.221L113.715 175.223" stroke="white" stroke-miterlimit="10" stroke-linecap="round" stroke-linejoin="round"/>
<path d="M119.703 199.518L120.485 199.127V172.321" stroke="white" stroke-miterlimit="10" stroke-linecap="round" stroke-linejoin="round"/>
<path d="M32.499 92.9995L0.999023 107.5L45.9351 131.17L68.3086 131.696L113.42 108.265L93.8109 99.2762L135.969 78.1125L156.171 86.2783L231.68 48.6077L168.2 26.7422L72.7324 73.4995" stroke="white" stroke-miterlimit="10" stroke-linecap="round" stroke-linejoin="round"/>
<path d="M113.689 232L68.5781 254.783L68.5781 131.697L113.689 108.266V232Z" stroke="white" stroke-miterlimit="10" stroke-linecap="round" stroke-linejoin="round"/>
<path d="M113.689 241.605L68.5781 264.307V254.94L113.689 232.021V241.605Z" stroke="white" stroke-miterlimit="10" stroke-linecap="round" stroke-linejoin="round"/>
<path d="M201.362 192.259V200.6L156.5 223.499L156.453 214.057" stroke="white" stroke-miterlimit="10" stroke-linecap="round" stroke-linejoin="round"/>
<path d="M68.5781 139.39L113.689 116.769" stroke="white" stroke-miterlimit="10" stroke-linecap="round" stroke-linejoin="round"/>
<path d="M190.695 112.705V85.4268L167.701 96.9399V124.218L190.695 112.705Z" stroke="white" stroke-miterlimit="10" stroke-linecap="round" stroke-linejoin="round"/>
<path d="M191.465 151.495V124.217L168.471 135.73V163.008L191.465 151.495Z" stroke="white" stroke-miterlimit="10" stroke-linecap="round" stroke-linejoin="round"/>
<path d="M191.465 189.504V162.227L168.471 173.74V201.018L191.465 189.504Z" stroke="white" stroke-miterlimit="10" stroke-linecap="round" stroke-linejoin="round"/>
<path d="M178.867 91.3525V118.63" stroke="white" stroke-miterlimit="10" stroke-linecap="round" stroke-linejoin="round"/>
<path d="M179.973 129.967V157.245" stroke="white" stroke-miterlimit="10" stroke-linecap="round" stroke-linejoin="round"/>
<path d="M179.973 167.909V195.187" stroke="white" stroke-miterlimit="10" stroke-linecap="round" stroke-linejoin="round"/>
<path d="M103.34 153.781V126.503L80.3457 138.016V165.294L103.34 153.781Z" stroke="white" stroke-miterlimit="10" stroke-linecap="round" stroke-linejoin="round"/>
<path d="M104.123 192.571V165.293L81.1289 176.806V204.084L104.123 192.571Z" stroke="white" stroke-miterlimit="10" stroke-linecap="round" stroke-linejoin="round"/>
<path d="M104.123 230.59V203.312L81.1289 214.826V242.09L104.123 230.59Z" stroke="white" stroke-miterlimit="10" stroke-linecap="round" stroke-linejoin="round"/>
<path d="M91.5166 132.426V159.704" stroke="white" stroke-miterlimit="10" stroke-linecap="round" stroke-linejoin="round"/>
<path d="M92.6221 171.054V198.318" stroke="white" stroke-miterlimit="10" stroke-linecap="round" stroke-linejoin="round"/>
<path d="M92.6221 208.996V236.274" stroke="white" stroke-miterlimit="10" stroke-linecap="round" stroke-linejoin="round"/>
<path d="M136.074 213.491L113.688 225V215.299L136.074 204.312V213.491Z" stroke="white" stroke-miterlimit="10" stroke-linecap="round" stroke-linejoin="round"/>
<path d="M231.949 48.6074V174.226" stroke="white" stroke-miterlimit="10" stroke-linecap="round" stroke-linejoin="round"/>
<path d="M7.74219 160.31V133.896L39.5425 149.809V176.034" stroke="white" stroke-miterlimit="10" stroke-linecap="round" stroke-linejoin="round"/>
<path d="M7.79492 160.31L39.4738 176.034" stroke="white" stroke-miterlimit="10" stroke-linecap="round" stroke-linejoin="round"/>
<path d="M21.2158 140.644V166.963" stroke="white" stroke-miterlimit="10" stroke-linecap="round" stroke-linejoin="round"/>
<path d="M39.5425 201.95V230.712L7.74219 214.799V186.226" stroke="white" stroke-miterlimit="10" stroke-linecap="round" stroke-linejoin="round"/>
<path d="M7.79492 186.226L39.4738 201.95" stroke="white" stroke-miterlimit="10" stroke-linecap="round" stroke-linejoin="round"/>
<path d="M21.2158 192.893V221.102" stroke="white" stroke-miterlimit="10" stroke-linecap="round" stroke-linejoin="round"/>
<path d="M41.9151 95.5667L40.1754 95.1483L24.5854 90.3433C20.3507 88.8856 17.2894 84.8904 15.9273 79.0731L10.8835 57.5721C8.1458 45.897 13.0143 29.7273 21.7533 21.5211L37.8423 6.40419C42.3331 2.19306 47.2151 0.573395 51.5576 1.86913L68.1726 6.98457" stroke="white" stroke-width="2" stroke-miterlimit="10" stroke-linecap="round" stroke-linejoin="round"/>
<path d="M43.8288 95.7954C42.7904 95.7954 41.7654 95.647 40.7674 95.35C36.3979 94.0273 33.2152 89.9916 31.7992 83.9584L26.7554 62.4574C24.0177 50.7823 28.8997 34.6126 37.6252 26.4063L53.7141 11.2895C58.2185 7.05135 63.1005 5.44518 67.4835 6.76791C71.853 8.09063 75.0357 12.1263 76.4517 18.1595L81.4956 39.6606C84.2332 51.2952 79.3782 67.4243 70.6932 75.6441C70.8955 79.3424 72.2171 81.7449 73.323 83.1486C73.8894 83.8639 74.1186 84.8762 73.9298 85.983C73.7275 87.2517 73.0667 88.3585 72.1631 88.9524C69.5738 90.6665 67.0519 91.1524 64.6649 90.3966C62.2239 89.6137 60.5516 87.6701 59.5401 86.1179L54.5368 90.8285C51.0574 94.0948 47.3487 95.7954 43.8288 95.7954Z" stroke="white" stroke-width="2" stroke-miterlimit="10" stroke-linecap="round" stroke-linejoin="round"/>
<path d="M50.6152 73.4838C50.4803 73.4838 50.332 73.4703 50.1971 73.4433C49.0912 73.2273 48.3495 72.242 48.2146 70.7978L47.338 61.5253C47.2841 61.0124 47.1223 60.8099 47.0818 60.7829L41.2153 59.1497C40.4331 58.9338 39.8398 58.3129 39.57 57.3951C39.0845 55.8159 39.57 53.6699 40.7164 52.2797L46.6503 45.2341C47.0818 44.7212 47.392 43.9384 47.4729 43.1826L48.4844 33.0462C48.6867 31.0351 49.8734 29.2265 51.303 28.7406C52.1661 28.4571 53.0157 28.6596 53.6361 29.3344L58.1809 34.2474C58.2213 34.2744 58.3158 34.2474 58.4641 34.1529L64.9644 29.5234C65.8815 28.862 66.9199 28.8215 67.7156 29.4019C68.8349 30.2117 69.1991 32.0339 68.6057 33.9505L65.4904 44.0329C65.2746 44.7482 65.2476 45.5041 65.4364 45.963L68.4438 53.238C68.9563 54.4932 68.7945 56.2478 67.9988 57.719C67.3919 58.8528 66.5423 59.5817 65.6117 59.7841L59.1384 61.1068C58.9496 61.1473 58.5315 61.4578 58.1809 62.1461L53.5417 71.2702C52.7999 72.6604 51.721 73.4838 50.6152 73.4838Z" stroke="white" stroke-miterlimit="10" stroke-linecap="round" stroke-linejoin="round"/>
<path d="M156.5 223L136 213.5L114.5 224.5L114 241.5L68.5 264L46.5 263.5L1 240.5L1.08105 107.632L32 93L24 90.5C19.7654 89.0423 17.2914 84.4433 15.9293 78.626L10.8855 57.1385C8.14779 45.4634 13.0163 29.2938 21.7553 21.0875L37.8442 5.97059C42.3351 1.75947 47.2171 0.139801 51.5596 1.43553C52.9833 1.87377 68.2083 6.30773 68.1341 6.60496C72.1529 8.13015 75.0929 12.0308 76.428 17.7267L81.4719 39.2277C83.9263 49.688 82.0787 62.8613 74.9985 71.5805L168 27L231.5 48.5V180.122L202 196L201.5 200.5L156.5 223Z" stroke="white" stroke-width="2" stroke-miterlimit="10" stroke-linecap="round" stroke-linejoin="round"/>
</svg>
